<svg width="400" height="300" viewBox="0 0 400 300" fill="none" xmlns="http://www.w3.org/2000/svg">
  <rect width="400" height="300" fill="#F3F4F6"/>
  <path d="M318.5 165.5H81.5C77.5 165.5 74 162 74 158V142C74 138 77.5 134.5 81.5 134.5H318.5C322.5 134.5 326 138 326 142V158C326 162 322.5 165.5 318.5 165.5Z" fill="#E5E7EB" stroke="#9CA3AF" stroke-width="2"/>
  <path d="M290 195.5H110C106 195.5 102.5 192 102.5 188V173C102.5 169 106 165.5 110 165.5H290C294 165.5 297.5 169 297.5 173V188C297.5 192 294 195.5 290 195.5Z" fill="#E5E7EB" stroke="#9CA3AF" stroke-width="2"/>
  <circle cx="130" cy="195.5" r="20" fill="#D1D5DB" stroke="#9CA3AF" stroke-width="2"/>
  <circle cx="130" cy="195.5" r="10" fill="#E5E7EB" stroke="#9CA3AF" stroke-width="2"/>
  <circle cx="270" cy="195.5" r="20" fill="#D1D5DB" stroke="#9CA3AF" stroke-width="2"/>
  <circle cx="270" cy="195.5" r="10" fill="#E5E7EB" stroke="#9CA3AF" stroke-width="2"/>
  <path d="M102.5 173C102.5 169 106 165.5 110 165.5H290C294 165.5 297.5 169 297.5 173M297.5 173L326 142C326 138 322.5 134.5 318.5 134.5H81.5C77.5 134.5 74 138 74 142L102.5 173" stroke="#9CA3AF" stroke-width="2"/>
  <path d="M140 134.5V116.5C140 112.5 143.5 109 147.5 109H252.5C256.5 109 260 112.5 260 116.5V134.5" stroke="#9CA3AF" stroke-width="2"/>
  <path d="M200 75V100" stroke="#9CA3AF" stroke-width="2"/>
  <path d="M185 95H215" stroke="#9CA3AF" stroke-width="2"/>
  <text x="200" y="225" font-family="Arial" font-size="14" fill="#6B7280" text-anchor="middle">No Image Available</text>
</svg> 